<svg xmlns="http://www.w3.org/2000/svg" width="5120" height="5120" viewBox="0 0 5120 5120">
  <defs>
    <style>
      .cls-1 {
        fill: #fff;
        fill-rule: evenodd;
      }
    </style>
  </defs>
  <path id="Box_1" data-name="Box 1" class="cls-1" d="M2701.4,2265.14S3295.48,1923.7,3592.48,1753q586.2,337.845,1172.52,675.75V3783.29Q4178.29,4120.115,3591.46,4457,3007.285,4119.665,2423,3782.27c0.34-343.43,1.02-1030.39,1.02-1030.39L2423,2426.71Zm890.06-192.05q-373.875,215.4-747.81,430.85v12.2q374.88,213.87,749.84,427.8,375.39-213.885,750.86-427.8v-11.18Q3967.94,2289.05,3591.46,2073.09ZM2701.4,2751.88V3626.8q376.92,213.375,753.91,426.78V3183.75Q3078.39,2967.84,2701.4,2751.88Zm1779.11,0q-373.875,215.925-747.82,431.87v869.83q377.94-215.91,755.94-431.86,1.53-395.76,3.05-791.59C4491.68,2804.92,4500.38,2754.09,4480.51,2751.88Z"/>
  <path id="Box_2" data-name="Box 2" class="cls-1" d="M635.4,1070.14L1526.48,558Q2112.68,895.839,2699,1233.75V2588.29Q2112.29,2925.115,1525.46,3262,941.285,2924.665,357,2587.27c0.339-343.43,1.016-1030.39,1.016-1030.39L357,1231.71ZM1525.46,878.09q-373.875,215.4-747.814,430.85v12.2q374.886,213.87,749.844,427.8,375.39-213.885,750.86-427.8v-11.18Q1901.94,1094.05,1525.46,878.09ZM635.4,1556.88V2431.8q376.919,213.375,753.912,426.78V1988.75Q1012.39,1772.84,635.4,1556.88Zm1779.112,0q-373.875,215.925-747.82,431.87v869.83q377.94-215.91,755.94-431.86,1.53-395.76,3.05-791.59C2425.68,1609.92,2434.38,1559.09,2414.51,1556.88Z"/>
</svg>
